%
M48
M72
T01C0.0118
T02C0.0320
T03C0.0354
T04C0.0394
T05C0.0787
T06C0.1181
%
T01
X12237Y1445
X23733Y1445
X12237Y6484
X23733Y6484
X23733Y7902
X12237Y7902
X8930Y16563
X3930Y19516
X31056Y14280
X27749Y20933
X27040Y23965
X29363Y8846
X8970Y8728
X3064Y27823
X32907Y27823
X35466Y25264
X505Y25224
X3064Y736
X505Y3295
X32907Y736
X32985Y3453
X35466Y12665
X25466Y18492
X25466Y17587
X8536Y7075
X27434Y17429
X27434Y18650
X21985Y24358
X8891Y12705
X8025Y5815
X8025Y7075
T02
X30796Y22941
X29796Y23941
X29796Y21941
T03
X1631Y14780
X1631Y13780
X3631Y14780
X3631Y13780
X34340Y13780
X34340Y14780
X32340Y13780
X32340Y14780
X26540Y3500
X27540Y3500
X25790Y2500
X28290Y2500
X8430Y3500
X9430Y3500
X7680Y2500
X10180Y2500
X4911Y13492
X7911Y13492
X4911Y15067
X7911Y15067
X31060Y15067
X28060Y15067
X31060Y13492
X28060Y13492
X24678Y2543
X24678Y5543
X29403Y2543
X29403Y5543
X6568Y2543
X6568Y5543
X11292Y2543
X11292Y5543
X1844Y17929
X1844Y16929
X34127Y17929
X34127Y16929
X1844Y22472
X1844Y19472
X34127Y22472
X34127Y19472
X25977Y25933
X26977Y25933
X27977Y25933
X28977Y25933
X29977Y25933
X29977Y26933
X28977Y26933
X27977Y26933
X26977Y26933
X25977Y26933
X24977Y26933
X23977Y26933
X22977Y26933
X21977Y26933
X20977Y26933
X19977Y26933
X18977Y26933
X17977Y26933
X16977Y26933
X15977Y26933
X14977Y26933
X13977Y26933
X12977Y26933
X11977Y26933
X10977Y26933
X9993Y19949
X8993Y19949
X7993Y19949
X6993Y19949
X5993Y19949
X5993Y18949
X6993Y18949
X7993Y18949
X8993Y18949
X9993Y18949
X10993Y18949
X11993Y18949
X12993Y18949
X13993Y18949
X14993Y18949
X15993Y18949
X16993Y18949
X17993Y18949
X18993Y18949
X19993Y18949
X20993Y18949
X21993Y18949
X22993Y18949
X23993Y18949
X24993Y18949
X4042Y7943
X4042Y6443
X10985Y25941
X11985Y25941
X12985Y25941
X13985Y25941
X14985Y25941
X15985Y25941
X16985Y25941
X17985Y25941
X18985Y25941
X19985Y25941
X20985Y25941
X21985Y25941
X10985Y19941
X11985Y19941
X12985Y19941
X18985Y19941
X19985Y19941
X20985Y19941
X21985Y19941
X24985Y19941
X24985Y25941
X23985Y25941
X22985Y25941
X23985Y19941
X22985Y19941
X13985Y19941
X17985Y19941
X16985Y19941
X15985Y19941
X14985Y19941
X17985Y14280
X18985Y14280
X19985Y14280
X20985Y14280
X21985Y14280
X22985Y14280
X22985Y13280
X22985Y12280
X22985Y11280
X22985Y15280
X22985Y16280
X16985Y14280
X15985Y14280
X14985Y14280
X13985Y14280
X12985Y14280
X23985Y14280
X23985Y13280
X23985Y12280
X23985Y11280
X23985Y15280
X23985Y16280
X24985Y14280
X24985Y13280
X24985Y12280
X24985Y15280
X24985Y16280
X25985Y14280
X25985Y13280
X25985Y12280
X25985Y15280
X25985Y16280
X9985Y14280
X9985Y13280
X9985Y12280
X10985Y14280
X10985Y13280
X10985Y12280
X10985Y15280
X11985Y14280
X11985Y13280
X11985Y12280
X11985Y11280
X11985Y15280
X11985Y16280
X18985Y15280
X18985Y16280
X19985Y15280
X19985Y16280
X20985Y15280
X20985Y16280
X21985Y15280
X21985Y16280
X14985Y15280
X14985Y16280
X15985Y15280
X15985Y16280
X16985Y15280
X16985Y16280
X17985Y15280
X17985Y16280
X18985Y13280
X18985Y12280
X18985Y11280
X19985Y13280
X19985Y12280
X19985Y11280
X20985Y13280
X20985Y12280
X20985Y11280
X21985Y13280
X21985Y12280
X21985Y11280
X14985Y13280
X14985Y12280
X14985Y11280
X15985Y13280
X15985Y12280
X15985Y11280
X16985Y13280
X16985Y12280
X16985Y11280
X17985Y13280
X17985Y12280
X17985Y11280
X13985Y15280
X12985Y15280
X12985Y16280
X13985Y16280
X13985Y13280
X13985Y12280
X13985Y11280
X12985Y11280
X12985Y12280
X12985Y13280
X22985Y10280
X18985Y10280
X19985Y10280
X20985Y10280
X21985Y10280
X14985Y10280
X15985Y10280
X16985Y10280
X17985Y10280
X13985Y10280
X12985Y10280
X22985Y9280
X18985Y9280
X19985Y9280
X20985Y9280
X21985Y9280
X14985Y9280
X15985Y9280
X16985Y9280
X17985Y9280
X13985Y9280
X12985Y9280
X22985Y6280
X18985Y6280
X19985Y6280
X20985Y6280
X21985Y6280
X14985Y6280
X15985Y6280
X16985Y6280
X17985Y6280
X13985Y6280
X12985Y6280
X22985Y8280
X18985Y8280
X19985Y8280
X20985Y8280
X21985Y8280
X14985Y8280
X15985Y8280
X16985Y8280
X17985Y8280
X13985Y8280
X12985Y8280
X22985Y5280
X18985Y5280
X19985Y5280
X20985Y5280
X21985Y5280
X14985Y5280
X15985Y5280
X16985Y5280
X17985Y5280
X13985Y5280
X12985Y5280
X22985Y4280
X18985Y4280
X19985Y4280
X20985Y4280
X21985Y4280
X14985Y4280
X15985Y4280
X16985Y4280
X17985Y4280
X13985Y4280
X12985Y4280
X22985Y3280
X18985Y3280
X19985Y3280
X20985Y3280
X21985Y3280
X14985Y3280
X15985Y3280
X16985Y3280
X17985Y3280
X13985Y3280
X12985Y3280
X22985Y2280
X18985Y2280
X19985Y2280
X20985Y2280
X21985Y2280
X14985Y2280
X15985Y2280
X16985Y2280
X17985Y2280
X13985Y2280
X12985Y2280
X10985Y16280
X9985Y16280
X9985Y15280
T04
X10985Y10241
X9985Y10341
X8985Y10241
X7985Y10341
X6985Y10241
X6985Y9341
X7985Y9241
X8985Y9341
X9985Y9241
X10985Y9341
X24985Y10241
X24985Y9341
X25985Y9241
X25985Y10341
X26985Y10241
X26985Y9341
X27985Y9241
X27985Y10341
X28985Y10241
X28985Y9341
X7454Y22051
X4894Y22051
X7454Y23831
X4894Y23831
X10480Y6193
X10530Y7193
X10480Y8193
X25530Y6193
X25480Y7193
X25530Y8193
T05
X1292Y6443
X1292Y7943
X2792Y6443
X2792Y7943
T06
X1844Y2075
X1844Y26484
X34127Y2075
X34127Y26484
M30
