G75*
G70*
%OFA0B0*%
%FSLAX24Y24*%
%IPPOS*%
%LPD*%
%AMOC8*
5,1,8,0,0,1.08239X$1,22.5*
%
%ADD10C,0.0000*%
%ADD11C,0.0079*%
%ADD12C,0.0030*%
%ADD13C,0.0040*%
%ADD14C,0.0080*%
%ADD15C,0.0100*%
%ADD16C,0.0320*%
%ADD17C,0.0120*%
%ADD18C,0.0050*%
D10*
X000269Y000500D02*
X000269Y028059D01*
X035702Y028059D01*
X035702Y000500D01*
X000269Y000500D01*
X001253Y002075D02*
X001255Y002123D01*
X001261Y002171D01*
X001271Y002218D01*
X001284Y002264D01*
X001302Y002309D01*
X001322Y002353D01*
X001347Y002395D01*
X001375Y002434D01*
X001405Y002471D01*
X001439Y002505D01*
X001476Y002537D01*
X001514Y002566D01*
X001555Y002591D01*
X001598Y002613D01*
X001643Y002631D01*
X001689Y002645D01*
X001736Y002656D01*
X001784Y002663D01*
X001832Y002666D01*
X001880Y002665D01*
X001928Y002660D01*
X001976Y002651D01*
X002022Y002639D01*
X002067Y002622D01*
X002111Y002602D01*
X002153Y002579D01*
X002193Y002552D01*
X002231Y002522D01*
X002266Y002489D01*
X002298Y002453D01*
X002328Y002415D01*
X002354Y002374D01*
X002376Y002331D01*
X002396Y002287D01*
X002411Y002242D01*
X002423Y002195D01*
X002431Y002147D01*
X002435Y002099D01*
X002435Y002051D01*
X002431Y002003D01*
X002423Y001955D01*
X002411Y001908D01*
X002396Y001863D01*
X002376Y001819D01*
X002354Y001776D01*
X002328Y001735D01*
X002298Y001697D01*
X002266Y001661D01*
X002231Y001628D01*
X002193Y001598D01*
X002153Y001571D01*
X002111Y001548D01*
X002067Y001528D01*
X002022Y001511D01*
X001976Y001499D01*
X001928Y001490D01*
X001880Y001485D01*
X001832Y001484D01*
X001784Y001487D01*
X001736Y001494D01*
X001689Y001505D01*
X001643Y001519D01*
X001598Y001537D01*
X001555Y001559D01*
X001514Y001584D01*
X001476Y001613D01*
X001439Y001645D01*
X001405Y001679D01*
X001375Y001716D01*
X001347Y001755D01*
X001322Y001797D01*
X001302Y001841D01*
X001284Y001886D01*
X001271Y001932D01*
X001261Y001979D01*
X001255Y002027D01*
X001253Y002075D01*
X000898Y006443D02*
X000900Y006482D01*
X000906Y006521D01*
X000916Y006559D01*
X000929Y006596D01*
X000946Y006631D01*
X000966Y006665D01*
X000990Y006696D01*
X001017Y006725D01*
X001046Y006751D01*
X001078Y006774D01*
X001112Y006794D01*
X001148Y006810D01*
X001185Y006822D01*
X001224Y006831D01*
X001263Y006836D01*
X001302Y006837D01*
X001341Y006834D01*
X001380Y006827D01*
X001417Y006816D01*
X001454Y006802D01*
X001489Y006784D01*
X001522Y006763D01*
X001553Y006738D01*
X001581Y006711D01*
X001606Y006681D01*
X001628Y006648D01*
X001647Y006614D01*
X001662Y006578D01*
X001674Y006540D01*
X001682Y006502D01*
X001686Y006463D01*
X001686Y006423D01*
X001682Y006384D01*
X001674Y006346D01*
X001662Y006308D01*
X001647Y006272D01*
X001628Y006238D01*
X001606Y006205D01*
X001581Y006175D01*
X001553Y006148D01*
X001522Y006123D01*
X001489Y006102D01*
X001454Y006084D01*
X001417Y006070D01*
X001380Y006059D01*
X001341Y006052D01*
X001302Y006049D01*
X001263Y006050D01*
X001224Y006055D01*
X001185Y006064D01*
X001148Y006076D01*
X001112Y006092D01*
X001078Y006112D01*
X001046Y006135D01*
X001017Y006161D01*
X000990Y006190D01*
X000966Y006221D01*
X000946Y006255D01*
X000929Y006290D01*
X000916Y006327D01*
X000906Y006365D01*
X000900Y006404D01*
X000898Y006443D01*
X002398Y006443D02*
X002400Y006482D01*
X002406Y006521D01*
X002416Y006559D01*
X002429Y006596D01*
X002446Y006631D01*
X002466Y006665D01*
X002490Y006696D01*
X002517Y006725D01*
X002546Y006751D01*
X002578Y006774D01*
X002612Y006794D01*
X002648Y006810D01*
X002685Y006822D01*
X002724Y006831D01*
X002763Y006836D01*
X002802Y006837D01*
X002841Y006834D01*
X002880Y006827D01*
X002917Y006816D01*
X002954Y006802D01*
X002989Y006784D01*
X003022Y006763D01*
X003053Y006738D01*
X003081Y006711D01*
X003106Y006681D01*
X003128Y006648D01*
X003147Y006614D01*
X003162Y006578D01*
X003174Y006540D01*
X003182Y006502D01*
X003186Y006463D01*
X003186Y006423D01*
X003182Y006384D01*
X003174Y006346D01*
X003162Y006308D01*
X003147Y006272D01*
X003128Y006238D01*
X003106Y006205D01*
X003081Y006175D01*
X003053Y006148D01*
X003022Y006123D01*
X002989Y006102D01*
X002954Y006084D01*
X002917Y006070D01*
X002880Y006059D01*
X002841Y006052D01*
X002802Y006049D01*
X002763Y006050D01*
X002724Y006055D01*
X002685Y006064D01*
X002648Y006076D01*
X002612Y006092D01*
X002578Y006112D01*
X002546Y006135D01*
X002517Y006161D01*
X002490Y006190D01*
X002466Y006221D01*
X002446Y006255D01*
X002429Y006290D01*
X002416Y006327D01*
X002406Y006365D01*
X002400Y006404D01*
X002398Y006443D01*
X002398Y007943D02*
X002400Y007982D01*
X002406Y008021D01*
X002416Y008059D01*
X002429Y008096D01*
X002446Y008131D01*
X002466Y008165D01*
X002490Y008196D01*
X002517Y008225D01*
X002546Y008251D01*
X002578Y008274D01*
X002612Y008294D01*
X002648Y008310D01*
X002685Y008322D01*
X002724Y008331D01*
X002763Y008336D01*
X002802Y008337D01*
X002841Y008334D01*
X002880Y008327D01*
X002917Y008316D01*
X002954Y008302D01*
X002989Y008284D01*
X003022Y008263D01*
X003053Y008238D01*
X003081Y008211D01*
X003106Y008181D01*
X003128Y008148D01*
X003147Y008114D01*
X003162Y008078D01*
X003174Y008040D01*
X003182Y008002D01*
X003186Y007963D01*
X003186Y007923D01*
X003182Y007884D01*
X003174Y007846D01*
X003162Y007808D01*
X003147Y007772D01*
X003128Y007738D01*
X003106Y007705D01*
X003081Y007675D01*
X003053Y007648D01*
X003022Y007623D01*
X002989Y007602D01*
X002954Y007584D01*
X002917Y007570D01*
X002880Y007559D01*
X002841Y007552D01*
X002802Y007549D01*
X002763Y007550D01*
X002724Y007555D01*
X002685Y007564D01*
X002648Y007576D01*
X002612Y007592D01*
X002578Y007612D01*
X002546Y007635D01*
X002517Y007661D01*
X002490Y007690D01*
X002466Y007721D01*
X002446Y007755D01*
X002429Y007790D01*
X002416Y007827D01*
X002406Y007865D01*
X002400Y007904D01*
X002398Y007943D01*
X000898Y007943D02*
X000900Y007982D01*
X000906Y008021D01*
X000916Y008059D01*
X000929Y008096D01*
X000946Y008131D01*
X000966Y008165D01*
X000990Y008196D01*
X001017Y008225D01*
X001046Y008251D01*
X001078Y008274D01*
X001112Y008294D01*
X001148Y008310D01*
X001185Y008322D01*
X001224Y008331D01*
X001263Y008336D01*
X001302Y008337D01*
X001341Y008334D01*
X001380Y008327D01*
X001417Y008316D01*
X001454Y008302D01*
X001489Y008284D01*
X001522Y008263D01*
X001553Y008238D01*
X001581Y008211D01*
X001606Y008181D01*
X001628Y008148D01*
X001647Y008114D01*
X001662Y008078D01*
X001674Y008040D01*
X001682Y008002D01*
X001686Y007963D01*
X001686Y007923D01*
X001682Y007884D01*
X001674Y007846D01*
X001662Y007808D01*
X001647Y007772D01*
X001628Y007738D01*
X001606Y007705D01*
X001581Y007675D01*
X001553Y007648D01*
X001522Y007623D01*
X001489Y007602D01*
X001454Y007584D01*
X001417Y007570D01*
X001380Y007559D01*
X001341Y007552D01*
X001302Y007549D01*
X001263Y007550D01*
X001224Y007555D01*
X001185Y007564D01*
X001148Y007576D01*
X001112Y007592D01*
X001078Y007612D01*
X001046Y007635D01*
X001017Y007661D01*
X000990Y007690D01*
X000966Y007721D01*
X000946Y007755D01*
X000929Y007790D01*
X000916Y007827D01*
X000906Y007865D01*
X000900Y007904D01*
X000898Y007943D01*
X001253Y026484D02*
X001255Y026532D01*
X001261Y026580D01*
X001271Y026627D01*
X001284Y026673D01*
X001302Y026718D01*
X001322Y026762D01*
X001347Y026804D01*
X001375Y026843D01*
X001405Y026880D01*
X001439Y026914D01*
X001476Y026946D01*
X001514Y026975D01*
X001555Y027000D01*
X001598Y027022D01*
X001643Y027040D01*
X001689Y027054D01*
X001736Y027065D01*
X001784Y027072D01*
X001832Y027075D01*
X001880Y027074D01*
X001928Y027069D01*
X001976Y027060D01*
X002022Y027048D01*
X002067Y027031D01*
X002111Y027011D01*
X002153Y026988D01*
X002193Y026961D01*
X002231Y026931D01*
X002266Y026898D01*
X002298Y026862D01*
X002328Y026824D01*
X002354Y026783D01*
X002376Y026740D01*
X002396Y026696D01*
X002411Y026651D01*
X002423Y026604D01*
X002431Y026556D01*
X002435Y026508D01*
X002435Y026460D01*
X002431Y026412D01*
X002423Y026364D01*
X002411Y026317D01*
X002396Y026272D01*
X002376Y026228D01*
X002354Y026185D01*
X002328Y026144D01*
X002298Y026106D01*
X002266Y026070D01*
X002231Y026037D01*
X002193Y026007D01*
X002153Y025980D01*
X002111Y025957D01*
X002067Y025937D01*
X002022Y025920D01*
X001976Y025908D01*
X001928Y025899D01*
X001880Y025894D01*
X001832Y025893D01*
X001784Y025896D01*
X001736Y025903D01*
X001689Y025914D01*
X001643Y025928D01*
X001598Y025946D01*
X001555Y025968D01*
X001514Y025993D01*
X001476Y026022D01*
X001439Y026054D01*
X001405Y026088D01*
X001375Y026125D01*
X001347Y026164D01*
X001322Y026206D01*
X001302Y026250D01*
X001284Y026295D01*
X001271Y026341D01*
X001261Y026388D01*
X001255Y026436D01*
X001253Y026484D01*
X033536Y026484D02*
X033538Y026532D01*
X033544Y026580D01*
X033554Y026627D01*
X033567Y026673D01*
X033585Y026718D01*
X033605Y026762D01*
X033630Y026804D01*
X033658Y026843D01*
X033688Y026880D01*
X033722Y026914D01*
X033759Y026946D01*
X033797Y026975D01*
X033838Y027000D01*
X033881Y027022D01*
X033926Y027040D01*
X033972Y027054D01*
X034019Y027065D01*
X034067Y027072D01*
X034115Y027075D01*
X034163Y027074D01*
X034211Y027069D01*
X034259Y027060D01*
X034305Y027048D01*
X034350Y027031D01*
X034394Y027011D01*
X034436Y026988D01*
X034476Y026961D01*
X034514Y026931D01*
X034549Y026898D01*
X034581Y026862D01*
X034611Y026824D01*
X034637Y026783D01*
X034659Y026740D01*
X034679Y026696D01*
X034694Y026651D01*
X034706Y026604D01*
X034714Y026556D01*
X034718Y026508D01*
X034718Y026460D01*
X034714Y026412D01*
X034706Y026364D01*
X034694Y026317D01*
X034679Y026272D01*
X034659Y026228D01*
X034637Y026185D01*
X034611Y026144D01*
X034581Y026106D01*
X034549Y026070D01*
X034514Y026037D01*
X034476Y026007D01*
X034436Y025980D01*
X034394Y025957D01*
X034350Y025937D01*
X034305Y025920D01*
X034259Y025908D01*
X034211Y025899D01*
X034163Y025894D01*
X034115Y025893D01*
X034067Y025896D01*
X034019Y025903D01*
X033972Y025914D01*
X033926Y025928D01*
X033881Y025946D01*
X033838Y025968D01*
X033797Y025993D01*
X033759Y026022D01*
X033722Y026054D01*
X033688Y026088D01*
X033658Y026125D01*
X033630Y026164D01*
X033605Y026206D01*
X033585Y026250D01*
X033567Y026295D01*
X033554Y026341D01*
X033544Y026388D01*
X033538Y026436D01*
X033536Y026484D01*
X033536Y002075D02*
X033538Y002123D01*
X033544Y002171D01*
X033554Y002218D01*
X033567Y002264D01*
X033585Y002309D01*
X033605Y002353D01*
X033630Y002395D01*
X033658Y002434D01*
X033688Y002471D01*
X033722Y002505D01*
X033759Y002537D01*
X033797Y002566D01*
X033838Y002591D01*
X033881Y002613D01*
X033926Y002631D01*
X033972Y002645D01*
X034019Y002656D01*
X034067Y002663D01*
X034115Y002666D01*
X034163Y002665D01*
X034211Y002660D01*
X034259Y002651D01*
X034305Y002639D01*
X034350Y002622D01*
X034394Y002602D01*
X034436Y002579D01*
X034476Y002552D01*
X034514Y002522D01*
X034549Y002489D01*
X034581Y002453D01*
X034611Y002415D01*
X034637Y002374D01*
X034659Y002331D01*
X034679Y002287D01*
X034694Y002242D01*
X034706Y002195D01*
X034714Y002147D01*
X034718Y002099D01*
X034718Y002051D01*
X034714Y002003D01*
X034706Y001955D01*
X034694Y001908D01*
X034679Y001863D01*
X034659Y001819D01*
X034637Y001776D01*
X034611Y001735D01*
X034581Y001697D01*
X034549Y001661D01*
X034514Y001628D01*
X034476Y001598D01*
X034436Y001571D01*
X034394Y001548D01*
X034350Y001528D01*
X034305Y001511D01*
X034259Y001499D01*
X034211Y001490D01*
X034163Y001485D01*
X034115Y001484D01*
X034067Y001487D01*
X034019Y001494D01*
X033972Y001505D01*
X033926Y001519D01*
X033881Y001537D01*
X033838Y001559D01*
X033797Y001584D01*
X033759Y001613D01*
X033722Y001645D01*
X033688Y001679D01*
X033658Y001716D01*
X033630Y001755D01*
X033605Y001797D01*
X033585Y001841D01*
X033567Y001886D01*
X033554Y001932D01*
X033544Y001979D01*
X033538Y002027D01*
X033536Y002075D01*
D11*
X010662Y020500D02*
X005977Y020500D01*
X005977Y020343D01*
X005977Y018610D02*
X005977Y018413D01*
X009993Y018413D01*
X009993Y018610D01*
X025466Y025933D02*
X025466Y026957D01*
X025505Y026445D02*
X030584Y026445D01*
D12*
X030717Y026568D02*
X030717Y026322D01*
X030779Y026260D01*
X030902Y026260D01*
X030964Y026322D01*
X030964Y026445D01*
X030840Y026445D01*
X030717Y026568D02*
X030779Y026630D01*
X030902Y026630D01*
X030964Y026568D01*
X031085Y026630D02*
X031085Y026260D01*
X031332Y026260D02*
X031332Y026630D01*
X031453Y026630D02*
X031639Y026630D01*
X031700Y026568D01*
X031700Y026322D01*
X031639Y026260D01*
X031453Y026260D01*
X031453Y026630D01*
X031085Y026630D02*
X031332Y026260D01*
X028088Y023334D02*
X027718Y023334D01*
X027718Y023457D02*
X027718Y023210D01*
X027780Y023089D02*
X027718Y023027D01*
X027718Y022904D01*
X027780Y022842D01*
X028027Y022842D01*
X028088Y022904D01*
X028088Y023027D01*
X028027Y023089D01*
X027780Y023089D01*
X027780Y022721D02*
X027903Y022721D01*
X027965Y022659D01*
X027965Y022474D01*
X028088Y022474D02*
X027718Y022474D01*
X027718Y022659D01*
X027780Y022721D01*
X025130Y021190D02*
X025130Y021094D01*
X025082Y021045D01*
X025130Y020944D02*
X025130Y020751D01*
X025130Y020847D02*
X024840Y020847D01*
X024937Y020751D01*
X024888Y020649D02*
X024840Y020601D01*
X024840Y020456D01*
X025130Y020456D01*
X025130Y020601D01*
X025082Y020649D01*
X024888Y020649D01*
X024888Y021045D02*
X024840Y021094D01*
X024840Y021190D01*
X024888Y021239D01*
X024937Y021239D01*
X024985Y021190D01*
X025034Y021239D01*
X025082Y021239D01*
X025130Y021190D01*
X024985Y021190D02*
X024985Y021142D01*
X024130Y021094D02*
X024082Y021045D01*
X024130Y021094D02*
X024130Y021190D01*
X024082Y021239D01*
X024034Y021239D01*
X023985Y021190D01*
X023985Y021142D01*
X023985Y021190D02*
X023937Y021239D01*
X023888Y021239D01*
X023840Y021190D01*
X023840Y021094D01*
X023888Y021045D01*
X023840Y020944D02*
X024034Y020944D01*
X024130Y020847D01*
X024034Y020751D01*
X023840Y020751D01*
X023888Y020649D02*
X023937Y020649D01*
X023985Y020601D01*
X024034Y020649D01*
X024082Y020649D01*
X024130Y020601D01*
X024130Y020504D01*
X024082Y020456D01*
X023985Y020553D02*
X023985Y020601D01*
X023888Y020649D02*
X023840Y020601D01*
X023840Y020504D01*
X023888Y020456D01*
X023130Y020456D02*
X022937Y020456D01*
X022840Y020553D01*
X022937Y020649D01*
X023130Y020649D01*
X023130Y020751D02*
X022840Y020751D01*
X022840Y020896D01*
X022888Y020944D01*
X022985Y020944D01*
X023034Y020896D01*
X023034Y020751D01*
X023034Y020847D02*
X023130Y020944D01*
X023130Y021045D02*
X022840Y021045D01*
X022840Y021239D01*
X022840Y021340D02*
X022840Y021533D01*
X022985Y021437D02*
X022985Y021340D01*
X023130Y021340D02*
X022840Y021340D01*
X022985Y021142D02*
X022985Y021045D01*
X023130Y021045D02*
X023130Y021239D01*
X022985Y020649D02*
X022985Y020456D01*
X022130Y020456D02*
X021937Y020456D01*
X021840Y020553D01*
X021937Y020649D01*
X022130Y020649D01*
X022082Y020751D02*
X021888Y020944D01*
X022082Y020944D01*
X022130Y020896D01*
X022130Y020799D01*
X022082Y020751D01*
X021888Y020751D01*
X021840Y020799D01*
X021840Y020896D01*
X021888Y020944D01*
X021985Y020649D02*
X021985Y020456D01*
X021130Y020456D02*
X020937Y020456D01*
X020840Y020553D01*
X020937Y020649D01*
X021130Y020649D01*
X021130Y020751D02*
X021130Y020944D01*
X021130Y020847D02*
X020840Y020847D01*
X020937Y020751D01*
X020985Y020649D02*
X020985Y020456D01*
X020130Y020456D02*
X019937Y020456D01*
X019840Y020553D01*
X019937Y020649D01*
X020130Y020649D01*
X020130Y020751D02*
X019937Y020944D01*
X019888Y020944D01*
X019840Y020896D01*
X019840Y020799D01*
X019888Y020751D01*
X019985Y020649D02*
X019985Y020456D01*
X020130Y020751D02*
X020130Y020944D01*
X019130Y020896D02*
X019130Y020799D01*
X019082Y020751D01*
X019130Y020649D02*
X018937Y020649D01*
X018840Y020553D01*
X018937Y020456D01*
X019130Y020456D01*
X018985Y020456D02*
X018985Y020649D01*
X018888Y020751D02*
X018840Y020799D01*
X018840Y020896D01*
X018888Y020944D01*
X018937Y020944D01*
X018985Y020896D01*
X019034Y020944D01*
X019082Y020944D01*
X019130Y020896D01*
X018985Y020896D02*
X018985Y020847D01*
X018130Y020896D02*
X017840Y020896D01*
X017985Y020751D01*
X017985Y020944D01*
X017985Y020649D02*
X017985Y020456D01*
X017937Y020456D02*
X017840Y020553D01*
X017937Y020649D01*
X018130Y020649D01*
X018130Y020456D02*
X017937Y020456D01*
X017130Y020456D02*
X016937Y020456D01*
X016840Y020553D01*
X016937Y020649D01*
X017130Y020649D01*
X017082Y020751D02*
X017130Y020799D01*
X017130Y020896D01*
X017082Y020944D01*
X016985Y020944D01*
X016937Y020896D01*
X016937Y020847D01*
X016985Y020751D01*
X016840Y020751D01*
X016840Y020944D01*
X016985Y020649D02*
X016985Y020456D01*
X016130Y020456D02*
X015937Y020456D01*
X015840Y020553D01*
X015937Y020649D01*
X016130Y020649D01*
X016082Y020751D02*
X016130Y020799D01*
X016130Y020896D01*
X016082Y020944D01*
X016034Y020944D01*
X015985Y020896D01*
X015985Y020751D01*
X016082Y020751D01*
X015985Y020751D02*
X015888Y020847D01*
X015840Y020944D01*
X015985Y020649D02*
X015985Y020456D01*
X015130Y020456D02*
X014937Y020456D01*
X014840Y020553D01*
X014937Y020649D01*
X015130Y020649D01*
X015130Y020751D02*
X015082Y020751D01*
X014888Y020944D01*
X014840Y020944D01*
X014840Y020751D01*
X014985Y020649D02*
X014985Y020456D01*
X014130Y020504D02*
X014082Y020456D01*
X014130Y020504D02*
X014130Y020601D01*
X014082Y020649D01*
X013985Y020649D01*
X013937Y020601D01*
X013937Y020553D01*
X013985Y020456D01*
X013840Y020456D01*
X013840Y020649D01*
X013840Y020751D02*
X014034Y020751D01*
X014130Y020847D01*
X014034Y020944D01*
X013840Y020944D01*
X013130Y020896D02*
X013130Y020799D01*
X013082Y020751D01*
X012985Y020799D02*
X012985Y020896D01*
X013034Y020944D01*
X013082Y020944D01*
X013130Y020896D01*
X012985Y020799D02*
X012937Y020751D01*
X012888Y020751D01*
X012840Y020799D01*
X012840Y020896D01*
X012888Y020944D01*
X012840Y021045D02*
X012840Y021239D01*
X012840Y021142D02*
X013130Y021142D01*
X013130Y020649D02*
X013034Y020553D01*
X013034Y020601D02*
X013034Y020456D01*
X013130Y020456D02*
X012840Y020456D01*
X012840Y020601D01*
X012888Y020649D01*
X012985Y020649D01*
X013034Y020601D01*
X012130Y020601D02*
X012082Y020649D01*
X011985Y020649D01*
X011985Y020553D01*
X011888Y020649D02*
X011840Y020601D01*
X011840Y020504D01*
X011888Y020456D01*
X012082Y020456D01*
X012130Y020504D01*
X012130Y020601D01*
X012130Y020751D02*
X011840Y020751D01*
X012130Y020944D01*
X011840Y020944D01*
X011840Y021045D02*
X011840Y021190D01*
X011888Y021239D01*
X012082Y021239D01*
X012130Y021190D01*
X012130Y021045D01*
X011840Y021045D01*
X011130Y021045D02*
X010937Y021045D01*
X010840Y021142D01*
X010937Y021239D01*
X011130Y021239D01*
X010985Y021239D02*
X010985Y021045D01*
X010937Y020944D02*
X010985Y020896D01*
X010985Y020751D01*
X011034Y020649D02*
X010840Y020649D01*
X010840Y020751D02*
X010840Y020896D01*
X010888Y020944D01*
X010937Y020944D01*
X010985Y020896D02*
X011034Y020944D01*
X011082Y020944D01*
X011130Y020896D01*
X011130Y020751D01*
X010840Y020751D01*
X011034Y020649D02*
X011130Y020553D01*
X011034Y020456D01*
X010840Y020456D01*
X010840Y021340D02*
X010840Y021533D01*
X010840Y021437D02*
X011130Y021437D01*
X009611Y021040D02*
X009364Y021040D01*
X009243Y021040D02*
X008996Y021040D01*
X009119Y021040D02*
X009119Y020669D01*
X008875Y020669D02*
X008875Y020916D01*
X008751Y021040D01*
X008628Y020916D01*
X008628Y020669D01*
X008506Y020731D02*
X008444Y020669D01*
X008259Y020669D01*
X008259Y021040D01*
X008444Y021040D01*
X008506Y020978D01*
X008506Y020916D01*
X008444Y020854D01*
X008259Y020854D01*
X008138Y020854D02*
X007891Y020854D01*
X007770Y020793D02*
X007770Y021040D01*
X007770Y020793D02*
X007646Y020669D01*
X007523Y020793D01*
X007523Y021040D01*
X008444Y020854D02*
X008506Y020793D01*
X008506Y020731D01*
X008628Y020854D02*
X008875Y020854D01*
X009488Y020669D02*
X009488Y021040D01*
X009611Y018244D02*
X009611Y017997D01*
X009488Y017874D01*
X009364Y017997D01*
X009364Y018244D01*
X009243Y018244D02*
X008996Y018244D01*
X008996Y018059D01*
X009119Y018121D01*
X009181Y018121D01*
X009243Y018059D01*
X009243Y017936D01*
X009181Y017874D01*
X009058Y017874D01*
X008996Y017936D01*
X008875Y018059D02*
X008628Y018059D01*
X008751Y017936D02*
X008751Y018183D01*
X005914Y015824D02*
X005865Y015872D01*
X005769Y015872D01*
X005720Y015824D01*
X005619Y015824D02*
X005619Y015727D01*
X005571Y015679D01*
X005426Y015679D01*
X005522Y015679D02*
X005619Y015582D01*
X005720Y015582D02*
X005914Y015775D01*
X005914Y015824D01*
X005914Y015582D02*
X005720Y015582D01*
X005619Y015824D02*
X005571Y015872D01*
X005426Y015872D01*
X005426Y015582D01*
X005426Y014297D02*
X005571Y014297D01*
X005619Y014249D01*
X005619Y014152D01*
X005571Y014104D01*
X005426Y014104D01*
X005522Y014104D02*
X005619Y014007D01*
X005720Y014007D02*
X005914Y014007D01*
X005817Y014007D02*
X005817Y014297D01*
X005720Y014201D01*
X005426Y014297D02*
X005426Y014007D01*
X003281Y012986D02*
X003088Y012986D01*
X003185Y012986D02*
X003185Y013277D01*
X003088Y013180D01*
X002987Y013228D02*
X002938Y013277D01*
X002842Y013277D01*
X002793Y013228D01*
X002793Y013180D01*
X002842Y013131D01*
X002938Y013131D01*
X002987Y013083D01*
X002987Y013035D01*
X002938Y012986D01*
X002842Y012986D01*
X002793Y013035D01*
X002692Y012986D02*
X002692Y013277D01*
X002499Y013277D02*
X002499Y012986D01*
X002398Y012986D02*
X002204Y012986D01*
X002204Y013277D01*
X002398Y013277D01*
X002499Y013277D02*
X002692Y012986D01*
X002301Y013131D02*
X002204Y013131D01*
X002103Y013083D02*
X002103Y013035D01*
X002054Y012986D01*
X001958Y012986D01*
X001909Y013035D01*
X001958Y013131D02*
X002054Y013131D01*
X002103Y013083D01*
X002103Y013228D02*
X002054Y013277D01*
X001958Y013277D01*
X001909Y013228D01*
X001909Y013180D01*
X001958Y013131D01*
X001966Y016040D02*
X002111Y016040D01*
X002159Y016088D01*
X002159Y016282D01*
X002111Y016330D01*
X001966Y016330D01*
X001966Y016040D01*
X001864Y016040D02*
X001671Y016040D01*
X001671Y016330D01*
X001864Y016330D01*
X001768Y016185D02*
X001671Y016185D01*
X001570Y016040D02*
X001376Y016040D01*
X001376Y016330D01*
X002260Y016233D02*
X002357Y016330D01*
X002357Y016040D01*
X002260Y016040D02*
X002454Y016040D01*
X002358Y021398D02*
X002358Y021543D01*
X002407Y021592D01*
X002503Y021592D01*
X002552Y021543D01*
X002552Y021398D01*
X002649Y021398D02*
X002358Y021398D01*
X002552Y021495D02*
X002649Y021592D01*
X002600Y021693D02*
X002649Y021741D01*
X002649Y021838D01*
X002600Y021886D01*
X002407Y021886D01*
X002358Y021838D01*
X002358Y021741D01*
X002407Y021693D01*
X002455Y021693D01*
X002503Y021741D01*
X002503Y021886D01*
X010840Y024867D02*
X010840Y025060D01*
X010840Y024963D02*
X011130Y024963D01*
X011130Y025161D02*
X010840Y025355D01*
X010840Y025161D02*
X011130Y025355D01*
X011840Y025355D02*
X012130Y025161D01*
X012130Y025060D02*
X012034Y024963D01*
X012034Y025012D02*
X012034Y024867D01*
X012130Y024867D02*
X011840Y024867D01*
X011840Y025012D01*
X011888Y025060D01*
X011985Y025060D01*
X012034Y025012D01*
X011840Y025161D02*
X012130Y025355D01*
X012840Y025355D02*
X012840Y025161D01*
X012840Y025258D02*
X013130Y025258D01*
X013082Y025060D02*
X013130Y025012D01*
X013130Y024915D01*
X013082Y024867D01*
X012985Y024915D02*
X012985Y025012D01*
X013034Y025060D01*
X013082Y025060D01*
X012985Y024915D02*
X012937Y024867D01*
X012888Y024867D01*
X012840Y024915D01*
X012840Y025012D01*
X012888Y025060D01*
X012888Y024765D02*
X012985Y024765D01*
X013034Y024717D01*
X013034Y024572D01*
X013130Y024572D02*
X012840Y024572D01*
X012840Y024717D01*
X012888Y024765D01*
X013034Y024669D02*
X013130Y024765D01*
X013840Y024717D02*
X013840Y024620D01*
X013888Y024572D01*
X014082Y024572D01*
X014130Y024620D01*
X014130Y024717D01*
X014082Y024765D01*
X013985Y024765D01*
X013985Y024669D01*
X013888Y024765D02*
X013840Y024717D01*
X013840Y024867D02*
X014130Y025060D01*
X013840Y025060D01*
X013840Y025161D02*
X013840Y025306D01*
X013888Y025355D01*
X014082Y025355D01*
X014130Y025306D01*
X014130Y025161D01*
X013840Y025161D01*
X013840Y024867D02*
X014130Y024867D01*
X014840Y024867D02*
X014840Y025012D01*
X014888Y025060D01*
X015082Y025060D01*
X015130Y025012D01*
X015130Y024867D01*
X014840Y024867D01*
X014888Y025161D02*
X014840Y025210D01*
X014840Y025306D01*
X014888Y025355D01*
X014937Y025355D01*
X015130Y025161D01*
X015130Y025355D01*
X015840Y025306D02*
X015840Y025210D01*
X015888Y025161D01*
X015888Y025060D02*
X015840Y025012D01*
X015840Y024867D01*
X016130Y024867D01*
X016130Y025012D01*
X016082Y025060D01*
X015888Y025060D01*
X016082Y025161D02*
X016130Y025210D01*
X016130Y025306D01*
X016082Y025355D01*
X016034Y025355D01*
X015985Y025306D01*
X015985Y025258D01*
X015985Y025306D02*
X015937Y025355D01*
X015888Y025355D01*
X015840Y025306D01*
X016840Y025306D02*
X016985Y025161D01*
X016985Y025355D01*
X017130Y025306D02*
X016840Y025306D01*
X016888Y025060D02*
X016840Y025012D01*
X016840Y024867D01*
X017130Y024867D01*
X017130Y025012D01*
X017082Y025060D01*
X016888Y025060D01*
X017840Y025012D02*
X017840Y024867D01*
X018130Y024867D01*
X018130Y025012D01*
X018082Y025060D01*
X017888Y025060D01*
X017840Y025012D01*
X017840Y025161D02*
X017985Y025161D01*
X017937Y025258D01*
X017937Y025306D01*
X017985Y025355D01*
X018082Y025355D01*
X018130Y025306D01*
X018130Y025210D01*
X018082Y025161D01*
X017840Y025161D02*
X017840Y025355D01*
X018840Y025355D02*
X018888Y025258D01*
X018985Y025161D01*
X018985Y025306D01*
X019034Y025355D01*
X019082Y025355D01*
X019130Y025306D01*
X019130Y025210D01*
X019082Y025161D01*
X018985Y025161D01*
X018888Y025060D02*
X018840Y025012D01*
X018840Y024867D01*
X019130Y024867D01*
X019130Y025012D01*
X019082Y025060D01*
X018888Y025060D01*
X019840Y025012D02*
X019840Y024867D01*
X020130Y024867D01*
X020130Y025012D01*
X020082Y025060D01*
X019888Y025060D01*
X019840Y025012D01*
X019840Y025161D02*
X019840Y025355D01*
X019888Y025355D01*
X020082Y025161D01*
X020130Y025161D01*
X020840Y025210D02*
X020840Y025306D01*
X020888Y025355D01*
X020937Y025355D01*
X020985Y025306D01*
X020985Y025210D01*
X020937Y025161D01*
X020888Y025161D01*
X020840Y025210D01*
X020985Y025210D02*
X021034Y025161D01*
X021082Y025161D01*
X021130Y025210D01*
X021130Y025306D01*
X021082Y025355D01*
X021034Y025355D01*
X020985Y025306D01*
X020888Y025060D02*
X020840Y025012D01*
X020840Y024867D01*
X021130Y024867D01*
X021130Y025012D01*
X021082Y025060D01*
X020888Y025060D01*
X021840Y025012D02*
X021840Y024867D01*
X022130Y024867D01*
X022130Y025012D01*
X022082Y025060D01*
X021888Y025060D01*
X021840Y025012D01*
X021888Y025161D02*
X021937Y025161D01*
X021985Y025210D01*
X021985Y025355D01*
X022082Y025355D02*
X021888Y025355D01*
X021840Y025306D01*
X021840Y025210D01*
X021888Y025161D01*
X022082Y025161D02*
X022130Y025210D01*
X022130Y025306D01*
X022082Y025355D01*
X022840Y025306D02*
X022840Y025210D01*
X022888Y025161D01*
X023082Y025161D01*
X022888Y025355D01*
X023082Y025355D01*
X023130Y025306D01*
X023130Y025210D01*
X023082Y025161D01*
X023130Y025060D02*
X023130Y024867D01*
X023130Y024963D02*
X022840Y024963D01*
X022937Y024867D01*
X022888Y024765D02*
X022840Y024717D01*
X022840Y024572D01*
X023130Y024572D01*
X023130Y024717D01*
X023082Y024765D01*
X022888Y024765D01*
X022840Y025306D02*
X022888Y025355D01*
X023840Y025258D02*
X023937Y025161D01*
X023840Y025258D02*
X024130Y025258D01*
X024130Y025161D02*
X024130Y025355D01*
X024130Y025060D02*
X024130Y024867D01*
X024130Y024963D02*
X023840Y024963D01*
X023937Y024867D01*
X023888Y024765D02*
X023840Y024717D01*
X023840Y024572D01*
X024130Y024572D01*
X024130Y024717D01*
X024082Y024765D01*
X023888Y024765D01*
X024840Y024717D02*
X024840Y024572D01*
X025130Y024572D01*
X025130Y024717D01*
X025082Y024765D01*
X024888Y024765D01*
X024840Y024717D01*
X024937Y024867D02*
X024840Y024963D01*
X025130Y024963D01*
X025130Y024867D02*
X025130Y025060D01*
X025130Y025161D02*
X024937Y025355D01*
X024888Y025355D01*
X024840Y025306D01*
X024840Y025210D01*
X024888Y025161D01*
X025130Y025161D02*
X025130Y025355D01*
X034642Y021838D02*
X034642Y021741D01*
X034690Y021693D01*
X034884Y021693D01*
X034690Y021886D01*
X034884Y021886D01*
X034932Y021838D01*
X034932Y021741D01*
X034884Y021693D01*
X034932Y021592D02*
X034932Y021398D01*
X034932Y021495D02*
X034642Y021495D01*
X034739Y021398D01*
X034787Y021297D02*
X034835Y021249D01*
X034835Y021103D01*
X034932Y021103D02*
X034642Y021103D01*
X034642Y021249D01*
X034690Y021297D01*
X034787Y021297D01*
X034835Y021200D02*
X034932Y021297D01*
X034642Y021838D02*
X034690Y021886D01*
X034475Y016338D02*
X034378Y016338D01*
X034330Y016290D01*
X034229Y016290D02*
X034180Y016338D01*
X034035Y016338D01*
X034035Y016048D01*
X034180Y016048D01*
X034229Y016096D01*
X034229Y016290D01*
X034475Y016338D02*
X034523Y016290D01*
X034523Y016241D01*
X034330Y016048D01*
X034523Y016048D01*
X033934Y016048D02*
X033740Y016048D01*
X033740Y016338D01*
X033934Y016338D01*
X033837Y016193D02*
X033740Y016193D01*
X033639Y016048D02*
X033446Y016048D01*
X033446Y016338D01*
X030474Y014504D02*
X030474Y014455D01*
X030426Y014407D01*
X030474Y014359D01*
X030474Y014310D01*
X030426Y014262D01*
X030329Y014262D01*
X030280Y014310D01*
X030179Y014262D02*
X030083Y014359D01*
X030131Y014359D02*
X029986Y014359D01*
X029986Y014262D02*
X029986Y014552D01*
X030131Y014552D01*
X030179Y014504D01*
X030179Y014407D01*
X030131Y014359D01*
X030280Y014504D02*
X030329Y014552D01*
X030426Y014552D01*
X030474Y014504D01*
X030426Y014407D02*
X030377Y014407D01*
X030426Y012977D02*
X030280Y012832D01*
X030474Y012832D01*
X030426Y012687D02*
X030426Y012977D01*
X030179Y012929D02*
X030179Y012832D01*
X030131Y012784D01*
X029986Y012784D01*
X030083Y012784D02*
X030179Y012687D01*
X029986Y012687D02*
X029986Y012977D01*
X030131Y012977D01*
X030179Y012929D01*
X032618Y013043D02*
X032666Y012994D01*
X032763Y012994D01*
X032812Y013043D01*
X032812Y013091D01*
X032763Y013139D01*
X032666Y013139D01*
X032618Y013188D01*
X032618Y013236D01*
X032666Y013284D01*
X032763Y013284D01*
X032812Y013236D01*
X032913Y013284D02*
X032913Y012994D01*
X033106Y012994D01*
X033207Y012994D02*
X033207Y013284D01*
X033401Y012994D01*
X033401Y013284D01*
X033502Y013236D02*
X033502Y013188D01*
X033550Y013139D01*
X033647Y013139D01*
X033695Y013091D01*
X033695Y013043D01*
X033647Y012994D01*
X033550Y012994D01*
X033502Y013043D01*
X033502Y013236D02*
X033550Y013284D01*
X033647Y013284D01*
X033695Y013236D01*
X033797Y013139D02*
X033990Y013139D01*
X033942Y012994D02*
X033942Y013284D01*
X033797Y013139D01*
X033106Y013284D02*
X032913Y013284D01*
X032913Y013139D02*
X033009Y013139D01*
X028839Y003546D02*
X028791Y003546D01*
X028743Y003498D01*
X028743Y003353D01*
X028839Y003353D01*
X028888Y003401D01*
X028888Y003498D01*
X028839Y003546D01*
X028646Y003450D02*
X028743Y003353D01*
X028743Y003252D02*
X028791Y003203D01*
X028791Y003058D01*
X028888Y003058D02*
X028597Y003058D01*
X028597Y003203D01*
X028646Y003252D01*
X028743Y003252D01*
X028791Y003155D02*
X028888Y003252D01*
X028646Y003450D02*
X028597Y003546D01*
X026218Y001862D02*
X026218Y001814D01*
X026170Y001765D01*
X026218Y001717D01*
X026218Y001669D01*
X026170Y001620D01*
X026073Y001620D01*
X026025Y001669D01*
X025923Y001669D02*
X025875Y001620D01*
X025778Y001620D01*
X025730Y001669D01*
X025778Y001765D02*
X025875Y001765D01*
X025923Y001717D01*
X025923Y001669D01*
X025778Y001765D02*
X025730Y001814D01*
X025730Y001862D01*
X025778Y001910D01*
X025875Y001910D01*
X025923Y001862D01*
X026025Y001862D02*
X026073Y001910D01*
X026170Y001910D01*
X026218Y001862D01*
X026170Y001765D02*
X026121Y001765D01*
X025629Y001620D02*
X025629Y001910D01*
X025435Y001910D02*
X025435Y001620D01*
X025334Y001620D02*
X025141Y001620D01*
X025141Y001910D01*
X025334Y001910D01*
X025435Y001910D02*
X025629Y001620D01*
X025237Y001765D02*
X025141Y001765D01*
X025039Y001717D02*
X025039Y001669D01*
X024991Y001620D01*
X024894Y001620D01*
X024846Y001669D01*
X024894Y001765D02*
X024991Y001765D01*
X025039Y001717D01*
X025039Y001862D02*
X024991Y001910D01*
X024894Y001910D01*
X024846Y001862D01*
X024846Y001814D01*
X024894Y001765D01*
X024163Y003058D02*
X023873Y003058D01*
X023873Y003203D01*
X023921Y003252D01*
X024018Y003252D01*
X024066Y003203D01*
X024066Y003058D01*
X024066Y003155D02*
X024163Y003252D01*
X024115Y003353D02*
X024163Y003401D01*
X024163Y003498D01*
X024115Y003546D01*
X024018Y003546D01*
X023970Y003498D01*
X023970Y003450D01*
X024018Y003353D01*
X023873Y003353D01*
X023873Y003546D01*
X011172Y001930D02*
X011123Y001978D01*
X011027Y001978D01*
X010978Y001930D01*
X010877Y001930D02*
X010829Y001978D01*
X010732Y001978D01*
X010683Y001930D01*
X010683Y001882D01*
X010732Y001833D01*
X010829Y001833D01*
X010877Y001785D01*
X010877Y001737D01*
X010829Y001688D01*
X010732Y001688D01*
X010683Y001737D01*
X010582Y001688D02*
X010582Y001978D01*
X010389Y001978D02*
X010389Y001688D01*
X010288Y001688D02*
X010094Y001688D01*
X010094Y001978D01*
X010288Y001978D01*
X010389Y001978D02*
X010582Y001688D01*
X010978Y001688D02*
X011172Y001882D01*
X011172Y001930D01*
X011172Y001688D02*
X010978Y001688D01*
X010191Y001833D02*
X010094Y001833D01*
X009993Y001785D02*
X009993Y001737D01*
X009945Y001688D01*
X009848Y001688D01*
X009800Y001737D01*
X009848Y001833D02*
X009945Y001833D01*
X009993Y001785D01*
X009993Y001930D02*
X009945Y001978D01*
X009848Y001978D01*
X009800Y001930D01*
X009800Y001882D01*
X009848Y001833D01*
X010487Y003058D02*
X010487Y003203D01*
X010536Y003252D01*
X010632Y003252D01*
X010681Y003203D01*
X010681Y003058D01*
X010777Y003058D02*
X010487Y003058D01*
X010681Y003155D02*
X010777Y003252D01*
X010729Y003353D02*
X010681Y003353D01*
X010632Y003401D01*
X010632Y003498D01*
X010681Y003546D01*
X010729Y003546D01*
X010777Y003498D01*
X010777Y003401D01*
X010729Y003353D01*
X010632Y003401D02*
X010584Y003353D01*
X010536Y003353D01*
X010487Y003401D01*
X010487Y003498D01*
X010536Y003546D01*
X010584Y003546D01*
X010632Y003498D01*
X006053Y003353D02*
X006005Y003353D01*
X005811Y003546D01*
X005763Y003546D01*
X005763Y003353D01*
X005811Y003252D02*
X005908Y003252D01*
X005956Y003203D01*
X005956Y003058D01*
X006053Y003058D02*
X005763Y003058D01*
X005763Y003203D01*
X005811Y003252D01*
X005956Y003155D02*
X006053Y003252D01*
D13*
X006413Y003522D02*
X006723Y003522D01*
X006723Y003419D02*
X006723Y003626D01*
X006671Y003741D02*
X006464Y003948D01*
X006671Y003948D01*
X006723Y003896D01*
X006723Y003793D01*
X006671Y003741D01*
X006464Y003741D01*
X006413Y003793D01*
X006413Y003896D01*
X006464Y003948D01*
X006413Y004063D02*
X006723Y004063D01*
X006620Y004063D02*
X006413Y004270D01*
X006464Y004386D02*
X006413Y004437D01*
X006413Y004541D01*
X006464Y004592D01*
X006568Y004592D01*
X006620Y004541D01*
X006723Y004541D01*
X006723Y004592D01*
X006723Y004437D02*
X006620Y004437D01*
X006568Y004386D01*
X006464Y004386D01*
X006723Y004386D02*
X006723Y004437D01*
X006723Y004270D02*
X006568Y004115D01*
X006413Y003522D02*
X006516Y003419D01*
X011137Y003470D02*
X011189Y003419D01*
X011137Y003470D02*
X011137Y003574D01*
X011189Y003626D01*
X011241Y003626D01*
X011447Y003419D01*
X011447Y003626D01*
X011447Y003741D02*
X011241Y003948D01*
X011189Y003948D01*
X011137Y003896D01*
X011137Y003793D01*
X011189Y003741D01*
X011447Y003741D02*
X011447Y003948D01*
X011396Y004063D02*
X011189Y004270D01*
X011396Y004270D01*
X011447Y004218D01*
X011447Y004115D01*
X011396Y004063D01*
X011189Y004063D01*
X011137Y004115D01*
X011137Y004218D01*
X011189Y004270D01*
X011189Y004386D02*
X011137Y004437D01*
X011137Y004541D01*
X011189Y004592D01*
X011292Y004592D01*
X011344Y004541D01*
X011447Y004541D01*
X011447Y004592D01*
X011447Y004437D02*
X011344Y004437D01*
X011292Y004386D01*
X011189Y004386D01*
X011447Y004386D02*
X011447Y004437D01*
X001669Y001305D02*
X001576Y001305D01*
X001622Y001352D02*
X001622Y001165D01*
X001669Y001118D01*
X001468Y001118D02*
X001468Y001258D01*
X001421Y001305D01*
X001281Y001305D01*
X001281Y001118D01*
X001173Y001165D02*
X001127Y001118D01*
X001033Y001118D01*
X000986Y001165D01*
X000986Y001258D01*
X001033Y001305D01*
X001127Y001305D01*
X001173Y001258D01*
X001173Y001165D01*
X000881Y001305D02*
X000834Y001305D01*
X000741Y001212D01*
X000741Y001305D02*
X000741Y001118D01*
X000633Y000918D02*
X000446Y000918D01*
X000446Y000638D01*
X000446Y000778D02*
X000540Y000778D01*
X000741Y000685D02*
X000788Y000732D01*
X000928Y000732D01*
X000928Y000778D02*
X000928Y000638D01*
X000788Y000638D01*
X000741Y000685D01*
X000788Y000825D02*
X000881Y000825D01*
X000928Y000778D01*
X001036Y000778D02*
X001036Y000685D01*
X001082Y000638D01*
X001222Y000638D01*
X001330Y000685D02*
X001330Y000778D01*
X001377Y000825D01*
X001470Y000825D01*
X001517Y000778D01*
X001517Y000732D01*
X001330Y000732D01*
X001330Y000685D02*
X001377Y000638D01*
X001470Y000638D01*
X001222Y000825D02*
X001082Y000825D01*
X001036Y000778D01*
X000446Y001118D02*
X000446Y001398D01*
X000633Y001398D01*
X000540Y001258D02*
X000446Y001258D01*
X001276Y012562D02*
X001276Y012842D01*
X001416Y012842D01*
X001463Y012796D01*
X001463Y012702D01*
X001416Y012656D01*
X001276Y012656D01*
X001369Y012656D02*
X001463Y012562D01*
X001571Y012609D02*
X001571Y012702D01*
X001617Y012749D01*
X001711Y012749D01*
X001757Y012702D01*
X001757Y012656D01*
X001571Y012656D01*
X001571Y012609D02*
X001617Y012562D01*
X001711Y012562D01*
X001865Y012562D02*
X001865Y012749D01*
X001912Y012749D01*
X001959Y012702D01*
X002005Y012749D01*
X002052Y012702D01*
X002052Y012562D01*
X001959Y012562D02*
X001959Y012702D01*
X002160Y012702D02*
X002207Y012749D01*
X002300Y012749D01*
X002347Y012702D01*
X002347Y012609D01*
X002300Y012562D01*
X002207Y012562D01*
X002160Y012609D01*
X002160Y012702D01*
X002455Y012749D02*
X002548Y012749D01*
X002501Y012796D02*
X002501Y012609D01*
X002548Y012562D01*
X002651Y012609D02*
X002651Y012702D01*
X002698Y012749D01*
X002791Y012749D01*
X002838Y012702D01*
X002838Y012656D01*
X002651Y012656D01*
X002651Y012609D02*
X002698Y012562D01*
X002791Y012562D01*
X003240Y012609D02*
X003287Y012562D01*
X003380Y012562D01*
X003427Y012609D01*
X003427Y012796D01*
X003380Y012842D01*
X003287Y012842D01*
X003240Y012796D01*
X003240Y012609D01*
X003535Y012609D02*
X003582Y012562D01*
X003722Y012562D01*
X003722Y012749D01*
X003830Y012749D02*
X003923Y012749D01*
X003876Y012796D02*
X003876Y012609D01*
X003923Y012562D01*
X003535Y012609D02*
X003535Y012749D01*
X005786Y013337D02*
X005993Y013337D01*
X005889Y013337D02*
X005889Y013647D01*
X005786Y013544D01*
X006108Y013596D02*
X006160Y013647D01*
X006263Y013647D01*
X006315Y013596D01*
X006108Y013389D01*
X006160Y013337D01*
X006263Y013337D01*
X006315Y013389D01*
X006315Y013596D01*
X006431Y013647D02*
X006431Y013337D01*
X006431Y013441D02*
X006637Y013647D01*
X006753Y013596D02*
X006804Y013647D01*
X006908Y013647D01*
X006960Y013596D01*
X006960Y013492D01*
X006908Y013441D01*
X006908Y013337D01*
X006960Y013337D01*
X006804Y013337D02*
X006804Y013441D01*
X006753Y013492D01*
X006753Y013596D01*
X006753Y013337D02*
X006804Y013337D01*
X006637Y013337D02*
X006482Y013492D01*
X006108Y013389D02*
X006108Y013596D01*
X006108Y014912D02*
X006315Y015119D01*
X006315Y015170D01*
X006263Y015222D01*
X006160Y015222D01*
X006108Y015170D01*
X005993Y015170D02*
X005941Y015222D01*
X005838Y015222D01*
X005786Y015170D01*
X005993Y015170D02*
X005993Y015119D01*
X005786Y014912D01*
X005993Y014912D01*
X006108Y014912D02*
X006315Y014912D01*
X006431Y014964D02*
X006637Y015170D01*
X006637Y014964D01*
X006586Y014912D01*
X006482Y014912D01*
X006431Y014964D01*
X006431Y015170D01*
X006482Y015222D01*
X006586Y015222D01*
X006637Y015170D01*
X006753Y015170D02*
X006804Y015222D01*
X006908Y015222D01*
X006960Y015170D01*
X006960Y015067D01*
X006908Y015015D01*
X006908Y014912D01*
X006960Y014912D01*
X006804Y014912D02*
X006804Y015015D01*
X006753Y015067D01*
X006753Y015170D01*
X006753Y014912D02*
X006804Y014912D01*
X001999Y020348D02*
X001792Y020555D01*
X001740Y020555D01*
X001688Y020503D01*
X001688Y020400D01*
X001740Y020348D01*
X001999Y020348D02*
X001999Y020555D01*
X001999Y020670D02*
X001792Y020877D01*
X001740Y020877D01*
X001688Y020825D01*
X001688Y020722D01*
X001740Y020670D01*
X001999Y020670D02*
X001999Y020877D01*
X001947Y020992D02*
X001740Y021199D01*
X001947Y021199D01*
X001999Y021148D01*
X001999Y021044D01*
X001947Y020992D01*
X001740Y020992D01*
X001688Y021044D01*
X001688Y021148D01*
X001740Y021199D01*
X001740Y021315D02*
X001688Y021366D01*
X001688Y021470D01*
X001740Y021522D01*
X001843Y021522D01*
X001895Y021470D01*
X001999Y021470D01*
X001999Y021522D01*
X001999Y021366D02*
X001895Y021366D01*
X001843Y021315D01*
X001740Y021315D01*
X001999Y021315D02*
X001999Y021366D01*
X024523Y004541D02*
X024523Y004437D01*
X024575Y004386D01*
X024678Y004386D01*
X024730Y004437D01*
X024833Y004437D01*
X024833Y004386D01*
X024833Y004270D02*
X024678Y004115D01*
X024730Y004063D02*
X024523Y004270D01*
X024523Y004063D02*
X024833Y004063D01*
X024782Y003948D02*
X024833Y003896D01*
X024833Y003793D01*
X024782Y003741D01*
X024575Y003948D01*
X024782Y003948D01*
X024782Y003741D02*
X024575Y003741D01*
X024523Y003793D01*
X024523Y003896D01*
X024575Y003948D01*
X024833Y003626D02*
X024833Y003419D01*
X024833Y003522D02*
X024523Y003522D01*
X024626Y003419D01*
X024523Y004541D02*
X024575Y004592D01*
X024678Y004592D01*
X024730Y004541D01*
X024833Y004541D01*
X024833Y004592D01*
X029247Y004541D02*
X029247Y004437D01*
X029299Y004386D01*
X029403Y004386D01*
X029454Y004437D01*
X029558Y004437D01*
X029558Y004386D01*
X029506Y004270D02*
X029558Y004218D01*
X029558Y004115D01*
X029506Y004063D01*
X029299Y004270D01*
X029506Y004270D01*
X029506Y004063D02*
X029299Y004063D01*
X029247Y004115D01*
X029247Y004218D01*
X029299Y004270D01*
X029247Y004541D02*
X029299Y004592D01*
X029403Y004592D01*
X029454Y004541D01*
X029558Y004541D01*
X029558Y004592D01*
X029558Y003948D02*
X029558Y003741D01*
X029351Y003948D01*
X029299Y003948D01*
X029247Y003896D01*
X029247Y003793D01*
X029299Y003741D01*
X029299Y003626D02*
X029247Y003574D01*
X029247Y003470D01*
X029299Y003419D01*
X029299Y003626D02*
X029351Y003626D01*
X029558Y003419D01*
X029558Y003626D01*
X029632Y013337D02*
X029580Y013389D01*
X029787Y013596D01*
X029787Y013389D01*
X029735Y013337D01*
X029632Y013337D01*
X029580Y013389D02*
X029580Y013596D01*
X029632Y013647D01*
X029735Y013647D01*
X029787Y013596D01*
X029902Y013596D02*
X029954Y013647D01*
X030058Y013647D01*
X030109Y013596D01*
X030109Y013492D01*
X030058Y013441D01*
X030058Y013337D01*
X030109Y013337D01*
X029954Y013337D02*
X029954Y013441D01*
X029902Y013492D01*
X029902Y013596D01*
X029902Y013337D02*
X029954Y013337D01*
X029465Y013337D02*
X029258Y013337D01*
X029465Y013544D01*
X029465Y013596D01*
X029413Y013647D01*
X029310Y013647D01*
X029258Y013596D01*
X029142Y013596D02*
X029091Y013647D01*
X028987Y013647D01*
X028936Y013596D01*
X029142Y013596D02*
X029142Y013544D01*
X028936Y013337D01*
X029142Y013337D01*
X029142Y014912D02*
X028936Y014912D01*
X029039Y014912D02*
X029039Y015222D01*
X028936Y015119D01*
X029258Y015170D02*
X029258Y014964D01*
X029465Y015170D01*
X029465Y014964D01*
X029413Y014912D01*
X029310Y014912D01*
X029258Y014964D01*
X029258Y015170D02*
X029310Y015222D01*
X029413Y015222D01*
X029465Y015170D01*
X029580Y015222D02*
X029580Y014912D01*
X029580Y015015D02*
X029787Y015222D01*
X029902Y015170D02*
X029954Y015222D01*
X030058Y015222D01*
X030109Y015170D01*
X030109Y015067D01*
X030058Y015015D01*
X030058Y014912D01*
X030109Y014912D01*
X029954Y014912D02*
X029954Y015015D01*
X029902Y015067D01*
X029902Y015170D01*
X029902Y014912D02*
X029954Y014912D01*
X029787Y014912D02*
X029632Y015067D01*
X034023Y020348D02*
X033972Y020400D01*
X033972Y020503D01*
X034023Y020555D01*
X034075Y020555D01*
X034282Y020348D01*
X034282Y020555D01*
X034282Y020670D02*
X034075Y020877D01*
X034023Y020877D01*
X033972Y020825D01*
X033972Y020722D01*
X034023Y020670D01*
X034282Y020670D02*
X034282Y020877D01*
X034230Y020992D02*
X034023Y021199D01*
X034230Y021199D01*
X034282Y021148D01*
X034282Y021044D01*
X034230Y020992D01*
X034023Y020992D01*
X033972Y021044D01*
X033972Y021148D01*
X034023Y021199D01*
X034023Y021315D02*
X033972Y021366D01*
X033972Y021470D01*
X034023Y021522D01*
X034127Y021522D01*
X034179Y021470D01*
X034282Y021470D01*
X034282Y021522D01*
X034282Y021366D02*
X034179Y021366D01*
X034127Y021315D01*
X034023Y021315D01*
X034282Y021315D02*
X034282Y021366D01*
D14*
X034127Y021972D02*
X033807Y021972D01*
X033807Y019972D01*
X034127Y019972D01*
X034127Y019872D01*
X034127Y019972D02*
X034447Y019972D01*
X034447Y021972D01*
X034127Y021972D01*
X034127Y022072D01*
X030560Y015387D02*
X028560Y015387D01*
X028560Y015067D01*
X028460Y015067D01*
X028560Y015067D02*
X028560Y014747D01*
X030560Y014747D01*
X030560Y015067D01*
X030660Y015067D01*
X030560Y015067D02*
X030560Y015387D01*
X030560Y013812D02*
X028560Y013812D01*
X028560Y013492D01*
X028460Y013492D01*
X028560Y013492D02*
X028560Y013172D01*
X030560Y013172D01*
X030560Y013492D01*
X030660Y013492D01*
X030560Y013492D02*
X030560Y013812D01*
X029403Y005143D02*
X029403Y005043D01*
X029723Y005043D01*
X029723Y003043D01*
X029403Y003043D01*
X029403Y002943D01*
X029403Y003043D02*
X029083Y003043D01*
X029083Y005043D01*
X029403Y005043D01*
X024998Y005043D02*
X024998Y003043D01*
X024678Y003043D01*
X024678Y002943D01*
X024678Y003043D02*
X024358Y003043D01*
X024358Y005043D01*
X024678Y005043D01*
X024678Y005143D01*
X024678Y005043D02*
X024998Y005043D01*
X011612Y005043D02*
X011612Y003043D01*
X011292Y003043D01*
X011292Y002943D01*
X011292Y003043D02*
X010972Y003043D01*
X010972Y005043D01*
X011292Y005043D01*
X011292Y005143D01*
X011292Y005043D02*
X011612Y005043D01*
X006888Y005043D02*
X006888Y003043D01*
X006568Y003043D01*
X006568Y002943D01*
X006568Y003043D02*
X006248Y003043D01*
X006248Y005043D01*
X006568Y005043D01*
X006568Y005143D01*
X006568Y005043D02*
X006888Y005043D01*
X005584Y006130D02*
X005584Y008374D01*
X004796Y008374D01*
X004796Y006130D01*
X005072Y006130D01*
X005072Y005933D01*
X005308Y005933D01*
X005308Y006130D01*
X005584Y006130D01*
X005308Y006130D02*
X005072Y006130D01*
X005190Y006287D02*
X005190Y006602D01*
X005033Y006445D02*
X005348Y006445D01*
X005411Y013172D02*
X005411Y013492D01*
X005311Y013492D01*
X005411Y013492D02*
X005411Y013812D01*
X007411Y013812D01*
X007411Y013492D01*
X007511Y013492D01*
X007411Y013492D02*
X007411Y013172D01*
X005411Y013172D01*
X005411Y014747D02*
X005411Y015067D01*
X005311Y015067D01*
X005411Y015067D02*
X005411Y015387D01*
X007411Y015387D01*
X007411Y015067D01*
X007511Y015067D01*
X007411Y015067D02*
X007411Y014747D01*
X005411Y014747D01*
X002164Y019972D02*
X001844Y019972D01*
X001844Y019872D01*
X001844Y019972D02*
X001524Y019972D01*
X001524Y021972D01*
X001844Y021972D01*
X001844Y022072D01*
X001844Y021972D02*
X002164Y021972D01*
X002164Y019972D01*
X005324Y021741D02*
X007024Y021741D01*
X007374Y022536D02*
X007374Y023341D01*
X007024Y024141D02*
X005324Y024141D01*
X004974Y023341D02*
X004974Y022548D01*
X005474Y022941D02*
X005476Y022993D01*
X005482Y023045D01*
X005492Y023097D01*
X005505Y023147D01*
X005522Y023197D01*
X005543Y023245D01*
X005568Y023291D01*
X005596Y023335D01*
X005627Y023377D01*
X005661Y023417D01*
X005698Y023454D01*
X005738Y023488D01*
X005780Y023519D01*
X005824Y023547D01*
X005870Y023572D01*
X005918Y023593D01*
X005968Y023610D01*
X006018Y023623D01*
X006070Y023633D01*
X006122Y023639D01*
X006174Y023641D01*
X006226Y023639D01*
X006278Y023633D01*
X006330Y023623D01*
X006380Y023610D01*
X006430Y023593D01*
X006478Y023572D01*
X006524Y023547D01*
X006568Y023519D01*
X006610Y023488D01*
X006650Y023454D01*
X006687Y023417D01*
X006721Y023377D01*
X006752Y023335D01*
X006780Y023291D01*
X006805Y023245D01*
X006826Y023197D01*
X006843Y023147D01*
X006856Y023097D01*
X006866Y023045D01*
X006872Y022993D01*
X006874Y022941D01*
X006872Y022889D01*
X006866Y022837D01*
X006856Y022785D01*
X006843Y022735D01*
X006826Y022685D01*
X006805Y022637D01*
X006780Y022591D01*
X006752Y022547D01*
X006721Y022505D01*
X006687Y022465D01*
X006650Y022428D01*
X006610Y022394D01*
X006568Y022363D01*
X006524Y022335D01*
X006478Y022310D01*
X006430Y022289D01*
X006380Y022272D01*
X006330Y022259D01*
X006278Y022249D01*
X006226Y022243D01*
X006174Y022241D01*
X006122Y022243D01*
X006070Y022249D01*
X006018Y022259D01*
X005968Y022272D01*
X005918Y022289D01*
X005870Y022310D01*
X005824Y022335D01*
X005780Y022363D01*
X005738Y022394D01*
X005698Y022428D01*
X005661Y022465D01*
X005627Y022505D01*
X005596Y022547D01*
X005568Y022591D01*
X005543Y022637D01*
X005522Y022685D01*
X005505Y022735D01*
X005492Y022785D01*
X005482Y022837D01*
X005476Y022889D01*
X005474Y022941D01*
D15*
X004131Y015280D02*
X003631Y015280D01*
X004131Y015280D02*
X004131Y013280D01*
X003631Y013280D01*
X002631Y013780D02*
X002631Y014780D01*
X002881Y014280D02*
X002883Y014311D01*
X002889Y014342D01*
X002899Y014372D01*
X002912Y014400D01*
X002929Y014427D01*
X002949Y014451D01*
X002972Y014473D01*
X002997Y014491D01*
X003025Y014506D01*
X003054Y014518D01*
X003084Y014526D01*
X003115Y014530D01*
X003147Y014530D01*
X003178Y014526D01*
X003208Y014518D01*
X003237Y014506D01*
X003265Y014491D01*
X003290Y014473D01*
X003313Y014451D01*
X003333Y014427D01*
X003350Y014400D01*
X003363Y014372D01*
X003373Y014342D01*
X003379Y014311D01*
X003381Y014280D01*
X003379Y014249D01*
X003373Y014218D01*
X003363Y014188D01*
X003350Y014160D01*
X003333Y014133D01*
X003313Y014109D01*
X003290Y014087D01*
X003265Y014069D01*
X003237Y014054D01*
X003208Y014042D01*
X003178Y014034D01*
X003147Y014030D01*
X003115Y014030D01*
X003084Y014034D01*
X003054Y014042D01*
X003025Y014054D01*
X002997Y014069D01*
X002972Y014087D01*
X002949Y014109D01*
X002929Y014133D01*
X002912Y014160D01*
X002899Y014188D01*
X002889Y014218D01*
X002883Y014249D01*
X002881Y014280D01*
X001881Y014280D02*
X001883Y014311D01*
X001889Y014342D01*
X001899Y014372D01*
X001912Y014400D01*
X001929Y014427D01*
X001949Y014451D01*
X001972Y014473D01*
X001997Y014491D01*
X002025Y014506D01*
X002054Y014518D01*
X002084Y014526D01*
X002115Y014530D01*
X002147Y014530D01*
X002178Y014526D01*
X002208Y014518D01*
X002237Y014506D01*
X002265Y014491D01*
X002290Y014473D01*
X002313Y014451D01*
X002333Y014427D01*
X002350Y014400D01*
X002363Y014372D01*
X002373Y014342D01*
X002379Y014311D01*
X002381Y014280D01*
X002379Y014249D01*
X002373Y014218D01*
X002363Y014188D01*
X002350Y014160D01*
X002333Y014133D01*
X002313Y014109D01*
X002290Y014087D01*
X002265Y014069D01*
X002237Y014054D01*
X002208Y014042D01*
X002178Y014034D01*
X002147Y014030D01*
X002115Y014030D01*
X002084Y014034D01*
X002054Y014042D01*
X002025Y014054D01*
X001997Y014069D01*
X001972Y014087D01*
X001949Y014109D01*
X001929Y014133D01*
X001912Y014160D01*
X001899Y014188D01*
X001889Y014218D01*
X001883Y014249D01*
X001881Y014280D01*
X001631Y015280D02*
X001381Y015280D01*
X000881Y014780D01*
X000881Y013780D01*
X001381Y013280D01*
X001631Y013280D01*
X008680Y005750D02*
X009180Y005750D01*
X009430Y005500D01*
X009430Y005000D01*
X010180Y005000D01*
X009430Y005000D02*
X009430Y004250D01*
X008430Y004250D01*
X008430Y005000D01*
X007680Y005000D01*
X008430Y005000D02*
X008430Y005500D01*
X008680Y005750D01*
X008730Y005250D02*
X008732Y005278D01*
X008738Y005305D01*
X008747Y005331D01*
X008760Y005356D01*
X008777Y005379D01*
X008796Y005399D01*
X008818Y005416D01*
X008842Y005430D01*
X008868Y005440D01*
X008895Y005447D01*
X008923Y005450D01*
X008951Y005449D01*
X008978Y005444D01*
X009005Y005435D01*
X009030Y005423D01*
X009053Y005408D01*
X009074Y005389D01*
X009092Y005368D01*
X009107Y005344D01*
X009118Y005318D01*
X009126Y005292D01*
X009130Y005264D01*
X009130Y005236D01*
X009126Y005208D01*
X009118Y005182D01*
X009107Y005156D01*
X009092Y005132D01*
X009074Y005111D01*
X009053Y005092D01*
X009030Y005077D01*
X009005Y005065D01*
X008978Y005056D01*
X008951Y005051D01*
X008923Y005050D01*
X008895Y005053D01*
X008868Y005060D01*
X008842Y005070D01*
X008818Y005084D01*
X008796Y005101D01*
X008777Y005121D01*
X008760Y005144D01*
X008747Y005169D01*
X008738Y005195D01*
X008732Y005222D01*
X008730Y005250D01*
X008730Y004750D02*
X008732Y004778D01*
X008738Y004805D01*
X008747Y004831D01*
X008760Y004856D01*
X008777Y004879D01*
X008796Y004899D01*
X008818Y004916D01*
X008842Y004930D01*
X008868Y004940D01*
X008895Y004947D01*
X008923Y004950D01*
X008951Y004949D01*
X008978Y004944D01*
X009005Y004935D01*
X009030Y004923D01*
X009053Y004908D01*
X009074Y004889D01*
X009092Y004868D01*
X009107Y004844D01*
X009118Y004818D01*
X009126Y004792D01*
X009130Y004764D01*
X009130Y004736D01*
X009126Y004708D01*
X009118Y004682D01*
X009107Y004656D01*
X009092Y004632D01*
X009074Y004611D01*
X009053Y004592D01*
X009030Y004577D01*
X009005Y004565D01*
X008978Y004556D01*
X008951Y004551D01*
X008923Y004550D01*
X008895Y004553D01*
X008868Y004560D01*
X008842Y004570D01*
X008818Y004584D01*
X008796Y004601D01*
X008777Y004621D01*
X008760Y004644D01*
X008747Y004669D01*
X008738Y004695D01*
X008732Y004722D01*
X008730Y004750D01*
X025790Y005000D02*
X026540Y005000D01*
X026540Y005500D01*
X026790Y005750D01*
X027290Y005750D01*
X027540Y005500D01*
X027540Y005000D01*
X028290Y005000D01*
X027540Y005000D02*
X027540Y004250D01*
X026540Y004250D01*
X026540Y005000D01*
X026840Y004750D02*
X026842Y004778D01*
X026848Y004805D01*
X026857Y004831D01*
X026870Y004856D01*
X026887Y004879D01*
X026906Y004899D01*
X026928Y004916D01*
X026952Y004930D01*
X026978Y004940D01*
X027005Y004947D01*
X027033Y004950D01*
X027061Y004949D01*
X027088Y004944D01*
X027115Y004935D01*
X027140Y004923D01*
X027163Y004908D01*
X027184Y004889D01*
X027202Y004868D01*
X027217Y004844D01*
X027228Y004818D01*
X027236Y004792D01*
X027240Y004764D01*
X027240Y004736D01*
X027236Y004708D01*
X027228Y004682D01*
X027217Y004656D01*
X027202Y004632D01*
X027184Y004611D01*
X027163Y004592D01*
X027140Y004577D01*
X027115Y004565D01*
X027088Y004556D01*
X027061Y004551D01*
X027033Y004550D01*
X027005Y004553D01*
X026978Y004560D01*
X026952Y004570D01*
X026928Y004584D01*
X026906Y004601D01*
X026887Y004621D01*
X026870Y004644D01*
X026857Y004669D01*
X026848Y004695D01*
X026842Y004722D01*
X026840Y004750D01*
X026840Y005250D02*
X026842Y005278D01*
X026848Y005305D01*
X026857Y005331D01*
X026870Y005356D01*
X026887Y005379D01*
X026906Y005399D01*
X026928Y005416D01*
X026952Y005430D01*
X026978Y005440D01*
X027005Y005447D01*
X027033Y005450D01*
X027061Y005449D01*
X027088Y005444D01*
X027115Y005435D01*
X027140Y005423D01*
X027163Y005408D01*
X027184Y005389D01*
X027202Y005368D01*
X027217Y005344D01*
X027228Y005318D01*
X027236Y005292D01*
X027240Y005264D01*
X027240Y005236D01*
X027236Y005208D01*
X027228Y005182D01*
X027217Y005156D01*
X027202Y005132D01*
X027184Y005111D01*
X027163Y005092D01*
X027140Y005077D01*
X027115Y005065D01*
X027088Y005056D01*
X027061Y005051D01*
X027033Y005050D01*
X027005Y005053D01*
X026978Y005060D01*
X026952Y005070D01*
X026928Y005084D01*
X026906Y005101D01*
X026887Y005121D01*
X026870Y005144D01*
X026857Y005169D01*
X026848Y005195D01*
X026842Y005222D01*
X026840Y005250D01*
X031840Y013280D02*
X031840Y015280D01*
X032340Y015280D01*
X033340Y014780D02*
X033340Y013780D01*
X033590Y014280D02*
X033592Y014311D01*
X033598Y014342D01*
X033608Y014372D01*
X033621Y014400D01*
X033638Y014427D01*
X033658Y014451D01*
X033681Y014473D01*
X033706Y014491D01*
X033734Y014506D01*
X033763Y014518D01*
X033793Y014526D01*
X033824Y014530D01*
X033856Y014530D01*
X033887Y014526D01*
X033917Y014518D01*
X033946Y014506D01*
X033974Y014491D01*
X033999Y014473D01*
X034022Y014451D01*
X034042Y014427D01*
X034059Y014400D01*
X034072Y014372D01*
X034082Y014342D01*
X034088Y014311D01*
X034090Y014280D01*
X034088Y014249D01*
X034082Y014218D01*
X034072Y014188D01*
X034059Y014160D01*
X034042Y014133D01*
X034022Y014109D01*
X033999Y014087D01*
X033974Y014069D01*
X033946Y014054D01*
X033917Y014042D01*
X033887Y014034D01*
X033856Y014030D01*
X033824Y014030D01*
X033793Y014034D01*
X033763Y014042D01*
X033734Y014054D01*
X033706Y014069D01*
X033681Y014087D01*
X033658Y014109D01*
X033638Y014133D01*
X033621Y014160D01*
X033608Y014188D01*
X033598Y014218D01*
X033592Y014249D01*
X033590Y014280D01*
X032590Y014280D02*
X032592Y014311D01*
X032598Y014342D01*
X032608Y014372D01*
X032621Y014400D01*
X032638Y014427D01*
X032658Y014451D01*
X032681Y014473D01*
X032706Y014491D01*
X032734Y014506D01*
X032763Y014518D01*
X032793Y014526D01*
X032824Y014530D01*
X032856Y014530D01*
X032887Y014526D01*
X032917Y014518D01*
X032946Y014506D01*
X032974Y014491D01*
X032999Y014473D01*
X033022Y014451D01*
X033042Y014427D01*
X033059Y014400D01*
X033072Y014372D01*
X033082Y014342D01*
X033088Y014311D01*
X033090Y014280D01*
X033088Y014249D01*
X033082Y014218D01*
X033072Y014188D01*
X033059Y014160D01*
X033042Y014133D01*
X033022Y014109D01*
X032999Y014087D01*
X032974Y014069D01*
X032946Y014054D01*
X032917Y014042D01*
X032887Y014034D01*
X032856Y014030D01*
X032824Y014030D01*
X032793Y014034D01*
X032763Y014042D01*
X032734Y014054D01*
X032706Y014069D01*
X032681Y014087D01*
X032658Y014109D01*
X032638Y014133D01*
X032621Y014160D01*
X032608Y014188D01*
X032598Y014218D01*
X032592Y014249D01*
X032590Y014280D01*
X032340Y013280D02*
X031840Y013280D01*
X034340Y013280D02*
X034590Y013280D01*
X035090Y013780D01*
X035090Y014780D01*
X034590Y015280D01*
X034340Y015280D01*
X031296Y021441D02*
X028296Y021441D01*
X028296Y024441D01*
X031296Y024441D01*
X031296Y021441D01*
X030296Y022941D02*
X029296Y022941D01*
X029005Y022941D02*
X029007Y022997D01*
X029013Y023052D01*
X029023Y023107D01*
X029036Y023161D01*
X029054Y023214D01*
X029075Y023266D01*
X029100Y023316D01*
X029128Y023364D01*
X029159Y023410D01*
X029194Y023454D01*
X029232Y023495D01*
X029272Y023534D01*
X029315Y023569D01*
X029361Y023602D01*
X029409Y023631D01*
X029458Y023656D01*
X029509Y023678D01*
X029562Y023697D01*
X029616Y023711D01*
X029671Y023722D01*
X029726Y023729D01*
X029782Y023732D01*
X029838Y023731D01*
X029893Y023726D01*
X029949Y023717D01*
X030003Y023704D01*
X030056Y023688D01*
X030108Y023668D01*
X030159Y023644D01*
X030208Y023617D01*
X030254Y023586D01*
X030298Y023552D01*
X030340Y023515D01*
X030379Y023475D01*
X030416Y023433D01*
X030449Y023388D01*
X030479Y023341D01*
X030505Y023291D01*
X030528Y023240D01*
X030547Y023188D01*
X030563Y023134D01*
X030575Y023080D01*
X030583Y023025D01*
X030587Y022969D01*
X030587Y022913D01*
X030583Y022857D01*
X030575Y022802D01*
X030563Y022748D01*
X030547Y022694D01*
X030528Y022642D01*
X030505Y022591D01*
X030479Y022541D01*
X030449Y022494D01*
X030416Y022449D01*
X030379Y022407D01*
X030340Y022367D01*
X030298Y022330D01*
X030254Y022296D01*
X030208Y022265D01*
X030159Y022238D01*
X030108Y022214D01*
X030056Y022194D01*
X030003Y022178D01*
X029949Y022165D01*
X029893Y022156D01*
X029838Y022151D01*
X029782Y022150D01*
X029726Y022153D01*
X029671Y022160D01*
X029616Y022171D01*
X029562Y022185D01*
X029509Y022204D01*
X029458Y022226D01*
X029409Y022251D01*
X029361Y022280D01*
X029315Y022313D01*
X029272Y022348D01*
X029232Y022387D01*
X029194Y022428D01*
X029159Y022472D01*
X029128Y022518D01*
X029100Y022566D01*
X029075Y022616D01*
X029054Y022668D01*
X029036Y022721D01*
X029023Y022775D01*
X029013Y022830D01*
X029007Y022885D01*
X029005Y022941D01*
D16*
X027540Y003000D02*
X027540Y000500D01*
X026540Y000500D02*
X026540Y003000D01*
X009430Y003000D02*
X009430Y000500D01*
X008430Y000500D02*
X008430Y003000D01*
D17*
X002844Y016679D02*
X000844Y016679D01*
X000804Y016735D01*
X000767Y016794D01*
X000734Y016855D01*
X000704Y016917D01*
X000677Y016981D01*
X000654Y017046D01*
X000635Y017112D01*
X000619Y017180D01*
X000607Y017248D01*
X000599Y017317D01*
X000595Y017386D01*
X000594Y017455D01*
X000598Y017524D01*
X000605Y017593D01*
X000616Y017661D01*
X000630Y017729D01*
X000649Y017796D01*
X000671Y017861D01*
X000697Y017925D01*
X000726Y017988D01*
X000759Y018049D01*
X000795Y018108D01*
X000834Y018165D01*
X000876Y018220D01*
X000921Y018272D01*
X000969Y018322D01*
X001020Y018369D01*
X001073Y018413D01*
X001129Y018454D01*
X001187Y018492D01*
X001247Y018527D01*
X001308Y018558D01*
X001372Y018586D01*
X001436Y018611D01*
X001502Y018631D01*
X001569Y018648D01*
X001637Y018662D01*
X001706Y018671D01*
X001775Y018677D01*
X001844Y018679D01*
X001913Y018677D01*
X001982Y018671D01*
X002051Y018662D01*
X002119Y018648D01*
X002186Y018631D01*
X002252Y018611D01*
X002316Y018586D01*
X002380Y018558D01*
X002441Y018527D01*
X002501Y018492D01*
X002559Y018454D01*
X002615Y018413D01*
X002668Y018369D01*
X002719Y018322D01*
X002767Y018272D01*
X002812Y018220D01*
X002854Y018165D01*
X002893Y018108D01*
X002929Y018049D01*
X002962Y017988D01*
X002991Y017925D01*
X003017Y017861D01*
X003039Y017796D01*
X003058Y017729D01*
X003072Y017661D01*
X003083Y017593D01*
X003090Y017524D01*
X003094Y017455D01*
X003093Y017386D01*
X003089Y017317D01*
X003081Y017248D01*
X003069Y017180D01*
X003053Y017112D01*
X003034Y017046D01*
X003011Y016981D01*
X002984Y016917D01*
X002954Y016855D01*
X002921Y016794D01*
X002884Y016735D01*
X002844Y016679D01*
X033127Y016679D02*
X035127Y016679D01*
X033127Y016679D02*
X033087Y016735D01*
X033050Y016794D01*
X033017Y016855D01*
X032987Y016917D01*
X032960Y016981D01*
X032937Y017046D01*
X032918Y017112D01*
X032902Y017180D01*
X032890Y017248D01*
X032882Y017317D01*
X032878Y017386D01*
X032877Y017455D01*
X032881Y017524D01*
X032888Y017593D01*
X032899Y017661D01*
X032913Y017729D01*
X032932Y017796D01*
X032954Y017861D01*
X032980Y017925D01*
X033009Y017988D01*
X033042Y018049D01*
X033078Y018108D01*
X033117Y018165D01*
X033159Y018220D01*
X033204Y018272D01*
X033252Y018322D01*
X033303Y018369D01*
X033356Y018413D01*
X033412Y018454D01*
X033470Y018492D01*
X033530Y018527D01*
X033591Y018558D01*
X033655Y018586D01*
X033719Y018611D01*
X033785Y018631D01*
X033852Y018648D01*
X033920Y018662D01*
X033989Y018671D01*
X034058Y018677D01*
X034127Y018679D01*
X034196Y018677D01*
X034265Y018671D01*
X034334Y018662D01*
X034402Y018648D01*
X034469Y018631D01*
X034535Y018611D01*
X034599Y018586D01*
X034663Y018558D01*
X034724Y018527D01*
X034784Y018492D01*
X034842Y018454D01*
X034898Y018413D01*
X034951Y018369D01*
X035002Y018322D01*
X035050Y018272D01*
X035095Y018220D01*
X035137Y018165D01*
X035176Y018108D01*
X035212Y018049D01*
X035245Y017988D01*
X035274Y017925D01*
X035300Y017861D01*
X035322Y017796D01*
X035341Y017729D01*
X035355Y017661D01*
X035366Y017593D01*
X035373Y017524D01*
X035377Y017455D01*
X035376Y017386D01*
X035372Y017317D01*
X035364Y017248D01*
X035352Y017180D01*
X035336Y017112D01*
X035317Y017046D01*
X035294Y016981D01*
X035267Y016917D01*
X035237Y016855D01*
X035204Y016794D01*
X035167Y016735D01*
X035127Y016679D01*
D18*
X008362Y022694D02*
X008362Y023145D01*
X008061Y023145D02*
X008061Y022694D01*
X008211Y022844D01*
X008362Y022694D01*
X007901Y022769D02*
X007826Y022694D01*
X007676Y022694D01*
X007601Y022769D01*
X007676Y022919D02*
X007826Y022919D01*
X007901Y022844D01*
X007901Y022769D01*
X007676Y022919D02*
X007601Y022995D01*
X007601Y023070D01*
X007676Y023145D01*
X007826Y023145D01*
X007901Y023070D01*
M02*
